<?xml version="1.0" encoding="utf-8"?>
<!-- Generator: Adobe Illustrator 19.1.0, SVG Export Plug-In . SVG Version: 6.00 Build 0)  -->
<svg version="1.1" id="Layer_1" xmlns="http://www.w3.org/2000/svg" xmlns:xlink="http://www.w3.org/1999/xlink" x="0px" y="0px"
	 viewBox="0 0 1024 1024" style="enable-background:new 0 0 1024 1024;" xml:space="preserve">
<style type="text/css">
	.st0{fill-rule:evenodd;clip-rule:evenodd;fill:#185452;}
	.st1{fill-rule:evenodd;clip-rule:evenodd;fill:url(#SVGID_1_);}
	.st2{fill-rule:evenodd;clip-rule:evenodd;fill:#2AA7A3;}
	.st3{fill-rule:evenodd;clip-rule:evenodd;fill:#FFFFFF;}
	.st4{fill-rule:evenodd;clip-rule:evenodd;}
</style>
<g>
	<path class="st0" d="M63.2,695.9C-2.1,575.5-48.3,392.8,89.5,204c11.7-16,28.9-28.4,49.8-19.2c4.2,1.9,7.7,4.3,10.5,7.1
		c50.7-88.7,140.4-156,244.8-180.9c2.2-0.5,4.4-1,6.6-1.5c139.4-30.7,290.9,15.6,377.6,132.6c4.7,6.3,8.9,12.7,12.8,19.2
		c0.4-24.8,17.9-40.4,41.5-37.7c26.7,3,45.7,22.8,64.3,40.3c73.5,69.4,117.2,166.4,124.8,267.4c6.5,86.3-14.2,181.7-74,246.4
		c10.3,170.2-116.7,350.3-334.4,346.2c-13.7-0.3-25-8.7-30.8-23.3c-4.1-10.3-3.3-19.6,0.2-28.2c-113.9,62.7-217.5,68.3-339.2,14.5
		c-83.7-37-161.6-113.4-222-248.2c-1.4-13,2-25.7,13.2-34.9C43.7,696.8,53.3,694.8,63.2,695.9z"/>
	<radialGradient id="SVGID_1_" cx="623.4151" cy="91.0568" r="363.4246" gradientUnits="userSpaceOnUse">
		<stop  offset="0" style="stop-color:#B1DEDA"/>
		<stop  offset="1" style="stop-color:#3FBDB9"/>
	</radialGradient>
	<path class="st1" d="M871.5,471.1c16.8-17.7,18.6-37.7,13.7-57.5c-8.6-34.4-28.6-53.6-51.7-88.7c-34.5-52.3-43.8-112.3-81.2-162.8
		C679.1,63.3,545.1,12,408.3,42.1c-2,0.4-4,0.9-6.1,1.4C224.4,85.8,109.8,252,145.7,417.3c31.9,146.9,184.5,254.9,313.8,178.8
		c38.8-22.9,68.6-41.9,89.7-15.4c-4,7.3-8.1,14.9-12.4,18.6C398.5,780.6,28.7,577.2,107.4,306.2c13.8-47.6,42.9-148.3-11.8-48.3
		c-3,0-6.3,2.6-8.1,6.7c-1.6,3.4-1.6,7-0.5,9.4c-1.6,3-3.2,6.1-4.8,9.3l-1.2,2.3c-3.6,0-7.7,3.2-10,8.2c-2.1,4.7-2,9.7,0,12.5
		c-3,6.5-5.7,13.1-8.3,19.6c-3.8,0.4-8,3.8-10.4,9.1c-2.8,6.2-2.1,12.7,1.4,15.3c-1.7,5.1-3.3,10.2-4.8,15.3
		c-4.2,1.2-8.1,5.9-9.7,12.2c-1.5,6.1-0.3,11.9,2.6,15c-1,4.3-1.9,8.6-2.7,12.9c-3.5,2.6-6.5,7.3-7.9,12.9
		c-1.8,7.4-0.4,14.5,3.2,18.3c-0.9,8.7-1.6,17.3-1.9,25.9c-4.3,2.6-7.4,8.8-7.8,16.1c-0.4,8.4,3,15.7,8,18
		c0.4,6.7,0.9,13.3,1.6,19.9c0.2,1.3,0.3,2.7,0.5,4c-3.6,4.2-5.8,11.1-5.3,18.8c0.7,10.3,6,18.7,12.5,20.6c3,12.3,6.7,24.4,11,36.1
		c-2.2,5.4-2.5,12.7-0.4,20.1c3.2,11,10.7,18.9,18.2,19.9c6.7,12.8,14.3,25.1,22.6,36.9c-0.6,7,1.2,15.3,5.7,23.1
		c7.3,12.8,19.2,20.1,28.7,18.4c10.5,10.8,21.8,21,33.8,30.6c-1,9.4,3.5,21.2,12.5,30.9c13.5,14.4,32.1,18.8,41.6,9.8
		c1.1-1,2-2.2,2.8-3.5c17.1,9.1,35.1,17.1,54.1,23.8c4.8,11.2,17,21.7,33.1,27.1c19.6,6.5,39.1,3.3,48.5-6.7
		c7.8,1.2,15.8,2.2,23.8,3c6-0.7,11.9-1.6,17.7-2.8c9.2,3.2,20.8,3.8,32.8,0.9c22.9-5.5,57.4-14,90.1-25.2
		c-5.2,5.6-10.7,10.9-16.6,16c-54.4,47.2-126.7,63.7-199.2,48.6c-62-13-126.5-47.7-186.5-100.2c-28.2-24.6-70.1-55.7-60.3-26.1
		c-2.2,2.3-2.2,6.9,0.2,11.1c2,3.4,4.9,5.6,7.6,5.9c1.8,3.3,3.9,7,6.3,11c-2.7,2.8-2.7,8.5,0.3,13.6c3.2,5.6,8.7,8.5,12.5,6.7
		c3.3,4.9,6.8,10.3,10.7,15.9c-2.5,3.3-2.3,9.2,0.8,14.6c3.7,6.4,10.2,9.7,14.4,7.2l0.2-0.1c3,4,6.1,8,9.2,11.9
		c-0.2,0.1-0.4,0.3-0.6,0.4c-4.2,3.6-3.1,11.7,2.3,18c5.4,6.3,13.2,8.5,17.4,4.8c0.1-0.1,0.3-0.3,0.4-0.4c1.9,2.1,3.9,4.2,5.8,6.3
		c-2.5,5-0.7,12.9,4.8,19.4c6.6,7.7,16.1,10.3,21.2,5.9c5.5,4.9,11.1,9.6,16.7,14.1c-3.5,5.3-0.4,14.2,7.1,20.2
		c7.8,6.2,17.4,7,21.5,1.8c0.2-0.2,0.4-0.5,0.5-0.7c5.7,3.8,11.6,7.4,17.4,10.8c-0.4,6.4,4.4,14.2,12.6,19.2c9.8,6,20.9,5.9,25.6,0
		c4.1,1.8,8.3,3.5,12.4,5.1c6.9,2.7,13.9,5.1,20.9,7.3c2.9,5.4,9,10.4,16.8,13.1c10.3,3.6,20.7,2.3,26-2.8
		c15.6,2.7,31.2,4.2,46.8,4.6c5,3.3,11.5,5.5,18.7,6.2c11.8,1.1,22.5-2.3,28.3-8.3c18-2.1,35.9-5.7,53.5-10.7c7,3.5,16.4,5,26.3,3.6
		c18.3-2.6,32-14,32.2-26.2c20.6-10.1,40.6-22.4,59.8-36.7c9.8-0.7,20.6-4.8,30.5-12.2c13.5-10,21.7-23.6,22.9-35.7
		c36.1-38.3,67.3-85.5,91.5-141.1c43.9,81.9-31.8,164.6-104,223c-28.3,22.9-84,62.3,20.3,33.7c5.6-1.5,11.2-3.2,16.6-4.9
		c4.9,6.2,16.6,6.4,26.9,0.1c6.5-3.9,11-9.5,12.7-14.9c8.5-3.7,16.8-7.7,24.7-11.9c0.2,0.3,0.5,0.6,0.7,0.8
		c6.9,6.9,20.9,4.1,31.2-6.4c6.4-6.4,9.9-14.2,10-20.9c7.3-5.4,14.2-11.1,20.7-17l0.2,0.2c8.5,7,23.9,2.1,34.2-10.8
		c9.6-11.9,11.6-26.5,5.2-34.2c6.8-9.8,12.9-20,18.2-30.5c11.4-0.1,23.4-11.8,28.4-28.6c4.6-15.7,1.7-31-6.4-38.2
		c2.5-14.5,3.9-29.3,3.9-44.5c7.8-7,13.3-19.8,13.6-34.5c0.2-6.8-0.8-13.3-2.6-19c113.5-104.4,106.8-352.9-48.6-487.7
		c-2.5-2.1-4.8-4.1-7-5.9c-0.5-1-1.1-2-1.8-2.9c-3.2-4.3-7.5-6.8-11.2-6.8c-20-13.4-23.4-5.5-16.5,12.3c-1.8,3.3-0.9,8.6,2.4,13.2
		c1.9,2.6,4.2,4.4,6.5,5.4c2.3,4.2,4.9,8.6,7.7,13.1c-0.3,3,0.6,6.6,2.8,10c2.2,3.3,5.1,5.6,8,6.5c2.4,3.6,4.8,7.1,7,10.7
		c-0.2,2.9,0.8,6.3,2.8,9.4c1.9,2.8,4.3,4.9,6.8,6c3.1,5.2,6.1,10.3,8.8,15.4c-2.5,3.4-2.5,9.3,0.4,14.9c2.9,5.6,7.7,9,11.8,9
		c1,2,1.9,4,2.8,6c-1.5,3.8-1.3,9.1,1,14.3c2.1,4.6,5.3,8.1,8.7,9.7c1.4,3.8,2.6,7.6,3.8,11.3c-1.9,3-2.7,7.5-1.7,12.3
		c1.2,5.7,4.4,10.1,8.1,11.6c0.9,4.2,1.7,8.4,2.4,12.5c-2.5,2-3.6,6.4-2.7,11.1c0.7,3.7,2.6,6.6,4.9,8.2c0.4,5.6,0.5,11.1,0.3,16.4
		c-3.1,0.3-5.8,4.1-6.1,8.9c-0.3,4.7,1.7,8.8,4.6,9.7c-4.1,30.1-16.3,55.4-33.9,76.2C863.4,522.4,854.3,489.3,871.5,471.1z"/>
	<path class="st2" d="M125.9,235c4.8-26,0.7-33.7-30.3,22.8c-3,0-6.3,2.6-8.1,6.7c-1.6,3.4-1.6,7-0.5,9.4c-1.6,3-3.2,6.1-4.8,9.3
		l-1.2,2.3c-3.6,0-7.7,3.2-10,8.2c-2.1,4.7-2,9.7,0,12.5c-3,6.5-5.7,13.1-8.3,19.6c-3.8,0.4-8,3.8-10.4,9.1
		c-2.8,6.2-2.1,12.7,1.4,15.3c-1.7,5.1-3.3,10.2-4.8,15.3c-4.2,1.2-8.1,5.9-9.7,12.2c-1.5,6.1-0.3,11.9,2.6,15
		c-1,4.3-1.9,8.6-2.7,12.9c-3.5,2.6-6.5,7.3-7.9,12.9c-1.8,7.4-0.4,14.5,3.2,18.3c-0.9,8.7-1.6,17.3-1.9,25.9
		c-4.3,2.6-7.4,8.8-7.8,16.1c-0.4,8.4,3,15.7,8,18c0.4,6.7,0.9,13.3,1.6,19.9c0.2,1.3,0.3,2.7,0.5,4c-3.6,4.2-5.8,11.1-5.3,18.8
		c0.7,10.3,6,18.7,12.5,20.6c3,12.3,6.7,24.4,11,36.1c-2.2,5.4-2.5,12.7-0.4,20.1c3.2,11,10.7,18.9,18.2,19.9
		c6.7,12.8,14.3,25.1,22.6,36.9c-0.6,7,1.2,15.3,5.7,23.1c7.3,12.8,19.2,20.1,28.7,18.4c10.5,10.8,21.8,21,33.8,30.6
		c-1,9.4,3.5,21.2,12.5,30.9c13.5,14.4,32.1,18.8,41.6,9.8c1.1-1,2-2.2,2.8-3.5c17.1,9.1,35.1,17.1,54.1,23.8
		c4.8,11.2,17,21.7,33.1,27.1c19.6,6.5,39.1,3.3,48.5-6.7c7.8,1.2,15.8,2.2,23.8,3c6-0.7,11.9-1.6,17.7-2.8
		c9.2,3.2,20.8,3.8,32.8,0.9c22.9-5.5,57.4-14,90.1-25.2c43.3-39.9,60.6-69.5,74.4-103.8C245.3,818.5-50.8,565.3,125.9,235z"/>
	<path class="st2" d="M83.6,740.7c-18.8-13-33.4-18.7-27.2,0.1c-2.2,2.3-2.2,6.9,0.2,11.1c2,3.4,4.9,5.6,7.6,5.9
		c1.8,3.3,3.9,7,6.3,11c-2.7,2.8-2.7,8.5,0.3,13.6c3.2,5.6,8.7,8.5,12.5,6.7c3.3,4.9,6.8,10.3,10.7,15.9c-2.5,3.3-2.3,9.2,0.8,14.6
		c3.7,6.4,10.2,9.7,14.4,7.2l0.2-0.1c3,4,6.1,8,9.2,11.9c-0.2,0.1-0.4,0.3-0.6,0.4c-4.2,3.6-3.1,11.7,2.3,18
		c5.4,6.3,13.2,8.5,17.4,4.8c0.1-0.1,0.3-0.3,0.4-0.4c1.9,2.1,3.9,4.2,5.8,6.3c-2.5,5-0.7,12.9,4.8,19.4c6.6,7.7,16.1,10.3,21.2,5.9
		c5.5,4.9,11.1,9.6,16.7,14.1c-3.5,5.3-0.4,14.2,7.1,20.2c7.8,6.2,17.4,7,21.5,1.8c0.2-0.2,0.4-0.5,0.5-0.7
		c5.7,3.8,11.6,7.4,17.4,10.8c-0.4,6.4,4.4,14.2,12.6,19.2c9.8,6,20.9,5.9,25.6,0c4.1,1.8,8.3,3.5,12.4,5.1
		c6.9,2.7,13.9,5.1,20.9,7.3c2.9,5.4,9,10.4,16.8,13.1c10.3,3.6,20.7,2.3,26-2.8c15.6,2.7,31.2,4.2,46.8,4.6
		c5,3.3,11.5,5.5,18.7,6.2c11.8,1.1,22.5-2.3,28.3-8.3c18-2.1,35.9-5.7,53.5-10.7c7,3.5,16.4,5,26.3,3.6c18.3-2.6,32-14,32.2-26.2
		c20.6-10.1,40.6-22.4,59.8-36.7c9.8-0.7,20.6-4.8,30.5-12.2c13.5-10,21.7-23.6,22.9-35.7c36.1-38.3,67.3-85.5,91.5-141.1l0.1,0.2v0
		c-6.1-52.1-34-95.3-71.7-134.3C633.3,921.9,260,1024.7,83.6,740.7L83.6,740.7z"/>
	<path class="st2" d="M801.8,374.9c31.9-0.7,58.2,22.6,58.9,52.1c0.6,29.5-24.7,54-56.5,54.7c-31.9,0.7-58.2-22.6-58.9-52.1
		C744.6,400.1,769.9,375.6,801.8,374.9z"/>
	<path class="st2" d="M914.8,675.6c-0.4-3.3-1.2-6.5-2.1-9.4c51.6-47.4,78.3-124.6,77.6-207.3c-3.2,75.1-66.9,176.7-182.6,106.6
		c9.4,12.7,18.8,25.5,28.2,38.2C862.2,627.8,888.5,651.7,914.8,675.6z"/>
	<path class="st2" d="M864.2,178.6c-2.5-2.1-4.8-4.1-7-5.9c-0.5-1-1.1-2-1.8-2.9c-3.2-4.3-7.5-6.8-11.2-6.8
		c-20-13.4-23.4-5.5-16.5,12.3c-1.8,3.3-0.9,8.6,2.4,13.2c1.9,2.6,4.2,4.4,6.5,5.4c2.3,4.2,4.9,8.6,7.7,13.1c-0.3,3,0.6,6.6,2.8,10
		c2.2,3.3,5.1,5.6,8,6.5c2.4,3.6,4.8,7.1,7,10.7c-0.2,2.9,0.8,6.3,2.8,9.4c1.9,2.8,4.3,4.9,6.8,6c3.1,5.2,6.1,10.3,8.8,15.4
		c-2.5,3.4-2.5,9.3,0.4,14.9c2.9,5.6,7.7,9,11.8,9c1,2,1.9,4,2.8,6c-1.5,3.8-1.3,9.1,1,14.3c2.1,4.6,5.3,8.1,8.7,9.7
		c1.4,3.8,2.6,7.6,3.8,11.3c-1.9,3-2.7,7.5-1.7,12.3c1.2,5.7,4.4,10.1,8.1,11.6c0.9,4.2,1.7,8.4,2.4,12.5c-2.5,2-3.6,6.4-2.7,11.1
		c0.7,3.7,2.6,6.6,4.9,8.2c0.4,5.6,0.5,11.1,0.3,16.4c-3.1,0.3-5.8,4.1-6.1,8.9c-0.3,4.7,1.7,8.8,4.6,9.7
		c-2,14.6-5.9,28.2-11.4,40.6C954.3,404.6,943.6,276.6,864.2,178.6z"/>
	<path class="st2" d="M629.8,991.1c9.6-1,23.9-4,44.6-9.6c5.6-1.5,11.2-3.2,16.6-4.9c4.9,6.2,16.6,6.4,26.9,0.1
		c6.5-3.9,11-9.5,12.7-14.9c8.5-3.7,16.8-7.7,24.7-11.9c0.2,0.3,0.5,0.6,0.7,0.8c6.9,6.9,20.9,4.1,31.2-6.4
		c6.4-6.4,9.9-14.2,10-20.9c7.3-5.4,14.2-11.1,20.7-17l0.2,0.2c8.5,7,23.9,2.1,34.2-10.8c9.6-11.9,11.6-26.5,5.2-34.2
		c6.8-9.8,12.9-20,18.2-30.5c11.4-0.1,23.4-11.8,28.4-28.6c4.6-15.7,1.7-31-6.4-38.2c2.5-14.5,3.9-29.3,3.9-44.5
		c7.8-7,13.3-19.8,13.6-34.5c0.2-6.8-0.8-13.3-2.6-19c-37.7-49.9-58.1-73.7-105-100.6C842.7,795.1,794.1,868.5,629.8,991.1z"/>
	<path class="st2" d="M260.7,112.4l-4.5,3.6C167.3,190,121.1,303.8,145.7,417.3c29.5,136,177.7,275.4,341.4,163
		c-116,13.2-421.5-170.8-222.4-471L260.7,112.4z"/>
	<path class="st3" d="M807.7,371.9c-22.2-1.4-46.2,8.4-51.8,31.9c-6.7,27.6,17.8,50,42.3,56c24.6,6,56.5-2.7,63.1-30.2
		c1.2-5,1.4-10,0.6-14.8C856.1,382,819.5,372.6,807.7,371.9z"/>
	<path class="st4" d="M802.5,441.8c18.3,4.5,35.9-3.1,39.3-17c1.6-6.8-0.4-13.8-5.1-19.7c0.9,2.3,1.1,4.8,0.5,7.3
		c-1.7,7.1-9.3,11.3-16.9,9.4c-7.7-1.9-12.5-9.1-10.8-16.2c1.7-7,9.2-11.2,16.9-9.4c-3.5-2-7.4-3.6-11.7-4.7
		c-18.3-4.5-35.9,3.1-39.3,17C772,422.5,784.1,437.3,802.5,441.8L802.5,441.8z M795,428c-3.6-0.9-5.9-4.3-5.1-7.7
		c0.8-3.4,4.4-5.3,8-4.5c3.6,0.9,5.9,4.3,5.1,7.7C802.3,426.9,798.7,428.8,795,428z"/>
	<path class="st3" d="M396.2,804.3c-2.2-9.4,7.3-19.8,21.4-23.2c14.1-3.4,27.3,1.5,29.5,10.9c2.2,9.4-7.3,19.8-21.4,23.2
		C411.7,818.6,398.5,813.7,396.2,804.3L396.2,804.3z M95.8,262.1c1.9,0.9,2.4,3.9,1.1,6.8c-1.3,2.9-3.9,4.5-5.8,3.6
		c-1.9-0.9-2.4-3.9-1.1-6.8C91.4,262.9,93.9,261.3,95.8,262.1L95.8,262.1z M94.2,292.2c3,1.4,3.7,6.1,1.7,10.7
		c-2.1,4.5-6.1,7.1-9.1,5.7c-3-1.4-3.7-6.1-1.7-10.7C87.2,293.4,91.2,290.8,94.2,292.2L94.2,292.2z M81.2,290.8
		c-2.3-1.1-5.5,0.9-7.1,4.4c-1.6,3.5-1,7.2,1.3,8.3c2.3,1.1,5.5-0.9,7.1-4.4C84.1,295.6,83.5,291.9,81.2,290.8L81.2,290.8z
		 M63.6,331.6c2.6,1.2,3.2,5.3,1.5,9.2c-1.8,3.9-5.3,6.1-7.9,4.9c-2.6-1.2-3.2-5.3-1.5-9.2C57.5,332.6,61.1,330.4,63.6,331.6
		L63.6,331.6z M78.1,333.2c-3.3-1.5-7.9,1.3-10.1,6.3c-2.3,5-1.4,10.3,1.9,11.9c3.3,1.5,7.9-1.3,10.1-6.3
		C82.3,340,81.4,334.7,78.1,333.2L78.1,333.2z M51,371.7c3.1,0.8,4.7,5.2,3.5,9.8c-1.1,4.7-4.6,7.8-7.6,7.1
		c-3.1-0.8-4.7-5.2-3.5-9.8C44.5,374.1,47.9,370.9,51,371.7L51,371.7z M67.3,370.3c4,1,6,6.7,4.6,12.7c-1.5,6-5.9,10.1-9.8,9.1
		c-4-1-6-6.7-4.6-12.7C58.9,373.4,63.3,369.3,67.3,370.3L67.3,370.3z M45.6,411.2c3.8,0.9,5.7,6.3,4.3,12c-1.4,5.7-5.5,9.6-9.3,8.6
		c-3.8-0.9-5.7-6.3-4.3-12C37.7,414.1,41.9,410.2,45.6,411.2L45.6,411.2z M65.5,409.5c4.8,1.2,7.3,8.1,5.5,15.5
		c-1.8,7.3-7.2,12.3-12,11.1c-4.8-1.2-7.3-8.1-5.6-15.5C55.3,413.3,60.7,408.3,65.5,409.5L65.5,409.5z M37.2,469
		c3.8,0.2,6.6,5,6.3,10.8c-0.3,5.7-3.6,10.3-7.4,10.1c-3.8-0.2-6.6-5-6.3-10.8C30.1,473.3,33.4,468.8,37.2,469L37.2,469z
		 M56.1,463.7c4.9,0.3,8.5,6.5,8.2,13.9c-0.4,7.4-4.7,13.2-9.6,13c-4.9-0.3-8.5-6.5-8.2-13.9C46.9,469.2,51.2,463.4,56.1,463.7
		L56.1,463.7z M65.4,516.6c6-0.4,11.3,6.6,11.9,15.6c0.6,9-3.7,16.7-9.7,17.1c-6,0.4-11.3-6.6-11.9-15.6
		C55.1,524.7,59.5,517,65.4,516.6L65.4,516.6z M43.4,525.8c4.6-0.3,8.7,5.1,9.2,12.1c0.5,7-2.9,12.9-7.5,13.3
		c-4.6,0.3-8.7-5.1-9.2-12.1C35.4,532,38.7,526.1,43.4,525.8L43.4,525.8z M64.8,597.8c5.1-1.5,11,3.6,13.2,11.3
		c2.2,7.7-0.1,15.1-5.2,16.6c-5.1,1.5-11-3.6-13.2-11.3C57.4,606.7,59.7,599.3,64.8,597.8L64.8,597.8z M87.2,582.3
		c-6.5,1.9-9.5,11.5-6.7,21.4c2.8,9.9,10.4,16.4,17,14.5c6.5-1.9,9.5-11.5,6.7-21.4C101.3,586.9,93.7,580.4,87.2,582.3L87.2,582.3z
		 M130.6,644.7c7.3-4.3,18.4,1.3,24.8,12.4c6.4,11.1,5.6,23.6-1.8,27.8c-7.3,4.3-18.4-1.3-24.8-12.4
		C122.5,661.5,123.3,649,130.6,644.7L130.6,644.7z M108.2,670.3c-5.7,3.3-6.3,13-1.4,21.6c4.9,8.6,13.5,12.9,19.2,9.6
		c5.7-3.3,6.3-13,1.4-21.6C122.5,671.3,113.9,666.9,108.2,670.3L108.2,670.3z M177.5,744.8c5.5-5.2,16.2-2.7,23.9,5.6
		c7.7,8.3,9.6,19.2,4.1,24.4c-5.5,5.2-16.2,2.7-24-5.6C173.8,760.9,172,750,177.5,744.8L177.5,744.8z M195.8,710.4
		c-7.1,6.7-4.7,20.8,5.3,31.5c10,10.7,23.8,14,30.9,7.3c7.1-6.7,4.7-20.8-5.3-31.5C216.7,707,202.9,703.7,195.8,710.4L195.8,710.4z
		 M290,745.1c3.9-12,21.6-16.9,39.6-11c17.9,5.9,29.3,20.5,25.4,32.5c-3.9,12-21.6,16.9-39.6,11C297.4,771.7,286,757.1,290,745.1
		L290,745.1z M290.2,795.7c-3,9.3,5.8,20.6,19.7,25.2c13.9,4.6,27.7,0.8,30.7-8.5c3-9.3-5.8-20.6-19.7-25.2
		C307,782.5,293.3,786.4,290.2,795.7z"/>
	<path class="st3" d="M604.1,892.6c-5.8-7.9-0.9-21.4,10.8-30.2c11.8-8.8,26-9.5,31.8-1.6c5.8,7.9,0.9,21.4-10.8,30.2
		C624.1,899.8,609.8,900.5,604.1,892.6L604.1,892.6z M59.4,743.7c1.8-1,4.5,0.3,6.1,3c1.6,2.7,1.4,5.8-0.4,6.8c-1.8,1-4.5-0.3-6.1-3
		C57.5,747.8,57.6,744.8,59.4,743.7L59.4,743.7z M82.9,762.5c2.8-1.7,7.1,0.5,9.6,4.8c2.5,4.3,2.2,9.1-0.7,10.8
		c-2.8,1.7-7.1-0.5-9.6-4.8C79.7,768.9,80,764.1,82.9,762.5L82.9,762.5z M74.2,772.4c-2.2,1.3-2.4,5-0.5,8.4c1.9,3.3,5.3,5,7.5,3.7
		c2.2-1.3,2.4-5,0.5-8.4C79.7,772.7,76.4,771.1,74.2,772.4L74.2,772.4z M108.3,797.4c3.2-1.8,7.9,0.5,10.7,5.3
		c2.8,4.8,2.4,10.1-0.7,12c-3.2,1.8-7.9-0.5-10.7-5.3C104.8,804.6,105.1,799.3,108.3,797.4L108.3,797.4z M98.7,808.4
		c-2.4,1.4-2.7,5.6-0.6,9.3c2.1,3.7,5.9,5.6,8.3,4.1c2.4-1.4,2.7-5.6,0.6-9.3C104.8,808.9,101.1,807,98.7,808.4L98.7,808.4z
		 M130.6,829.7c3.1-2.7,8.9-1.1,12.9,3.6c4,4.7,4.8,10.7,1.7,13.4c-3.1,2.7-8.9,1.1-12.9-3.6C128.3,838.4,127.5,832.4,130.6,829.7
		L130.6,829.7z M122.2,843.9c-2.4,2.1-1.8,6.7,1.3,10.4c3.1,3.6,7.6,4.9,10,2.8c2.4-2.1,1.8-6.7-1.3-10.4
		C129.1,843.1,124.6,841.8,122.2,843.9L122.2,843.9z M161.3,853.9c3.8-3.3,10.8-1.3,15.7,4.4c4.9,5.7,5.9,13,2.1,16.3
		c-3.8,3.3-10.8,1.3-15.7-4.4C158.4,864.5,157.5,857.2,161.3,853.9L161.3,853.9z M151.1,871.2c-2.9,2.6-2.2,8.2,1.6,12.7
		c3.8,4.4,9.3,6,12.2,3.4c2.9-2.6,2.2-8.2-1.6-12.6C159.5,870.1,154,868.6,151.1,871.2L151.1,871.2z M199.7,893
		c3-3.9,10.2-3.3,16,1.3c5.8,4.6,8,11.5,5,15.3c-3,3.9-10.2,3.3-16-1.3C198.9,903.7,196.7,896.8,199.7,893L199.7,893z M193.1,911.5
		c-2.4,3-0.6,8.3,3.9,11.9c4.5,3.6,10,4,12.4,1c2.4-3,0.6-8.3-3.9-11.9C201,909,195.4,908.5,193.1,911.5L193.1,911.5z M248,915.9
		c3.1-5.1,11.8-5.5,19.5-0.7c7.7,4.7,11.4,12.7,8.2,17.8c-3.1,5.1-11.8,5.5-19.5,0.7C248.6,929,244.9,921,248,915.9L248,915.9z
		 M242.7,939.3c-2.4,4,0.4,10.2,6.4,13.8c5.9,3.7,12.7,3.4,15.1-0.6c2.4-4-0.4-10.2-6.4-13.8C251.9,935.1,245.1,935.4,242.7,939.3
		L242.7,939.3z M313.8,936c2.2-6.5,11.9-9,21.6-5.6c9.7,3.4,15.7,11.4,13.4,17.9c-2.2,6.5-11.9,9-21.6,5.6
		C317.6,950.5,311.5,942.5,313.8,936L313.8,936z M313.4,963.4c-1.7,5,2.9,11.2,10.4,13.9c7.5,2.6,15,0.7,16.7-4.3
		c1.7-5-2.9-11.2-10.4-13.9C322.6,956.5,315.1,958.4,313.4,963.4L313.4,963.4z M389.5,936.5c0.8-8.5,11.7-14.4,24.4-13.2
		c12.7,1.2,22.3,9.1,21.5,17.5c-0.8,8.5-11.7,14.4-24.4,13.2C398.3,952.8,388.7,944.9,389.5,936.5L389.5,936.5z M397.2,969.6
		c0.6-6.6,9.1-11.2,18.9-10.2c9.8,0.9,17.3,7,16.7,13.6c-0.6,6.6-9.1,11.2-18.9,10.2C404,982.3,396.6,976.2,397.2,969.6L397.2,969.6
		z M480.4,920.9c-1.3-9.7,9.3-19.1,23.7-21.2c14.4-2,27.2,4.2,28.6,13.8c1.3,9.7-9.3,19.1-23.7,21.2
		C494.5,936.7,481.7,930.5,480.4,920.9L480.4,920.9z M497.6,955.8c-1-7.5,7.2-14.9,18.4-16.4c11.2-1.6,21.1,3.2,22.2,10.7
		c1,7.5-7.2,14.8-18.4,16.4C508.6,968.1,498.7,963.3,497.6,955.8L497.6,955.8z M562.9,863.6c7.5,10.2,25.8,9.2,41-2.1
		c15.2-11.3,21.5-28.7,14-38.9c-7.5-10.2-25.8-9.2-41,2.1C561.7,836,555.5,853.4,562.9,863.6z"/>
	<path class="st3" d="M921.1,404.7c3.3,0.2,4.6,4.2,4.4,7c-0.2,2.8-2,6.6-5.3,6.3c-3.3-0.2-4.6-4.2-4.4-7
		C916,408.3,917.8,404.5,921.1,404.7L921.1,404.7z M831.8,176.6c3.4-2.5,7.8,0.4,9.9,3.2c2.1,2.8,3.5,8,0.2,10.5
		c-3.4,2.5-7.8-0.4-9.9-3.2C829.9,184.2,828.4,179.1,831.8,176.6L831.8,176.6z M842.8,167.8c-3.6,2.7-2,8.2,0.2,11.2
		c2.2,3,7,6.1,10.6,3.5c3.6-2.7,2-8.2-0.2-11.2C851.2,168.3,846.4,165.2,842.8,167.8L842.8,167.8z M860.9,197
		c3.7-2.5,8.3,0.9,10.4,4c2.1,3.1,3.3,8.7-0.4,11.2c-3.7,2.5-8.3-0.9-10.4-4C858.5,205.1,857.2,199.5,860.9,197L860.9,197z
		 M849.5,205.2c-3.5,2.3-2.3,7.5-0.4,10.5c1.9,2.9,6.3,6.1,9.7,3.7c3.5-2.3,2.3-7.5,0.4-10.5C857.3,206,852.9,202.9,849.5,205.2
		L849.5,205.2z M878.8,223.6c3.7-2.5,8.3,0.9,10.4,4c2.1,3.1,3.3,8.7-0.4,11.2c-3.7,2.5-8.3-0.9-10.4-4
		C876.3,231.6,875.1,226,878.8,223.6L878.8,223.6z M867.3,231.8c-3.5,2.3-2.3,7.5-0.4,10.5c1.9,2.9,6.3,6.1,9.7,3.7
		c3.5-2.3,2.3-7.5,0.4-10.5C875.1,232.6,870.8,229.5,867.3,231.8L867.3,231.8z M898.8,259.4c4.3-2.3,9,2,10.9,5.7
		c1.9,3.6,2.6,9.9-1.7,12.2c-4.3,2.3-9-2-10.9-5.7C895.3,268,894.5,261.7,898.8,259.4L898.8,259.4z M885.1,267.1
		c-4.1,2.1-3.4,8-1.6,11.4c1.8,3.4,6.1,7.4,10.2,5.3c4.1-2.1,3.4-8,1.6-11.4C893.5,269,889.2,265,885.1,267.1L885.1,267.1z
		 M901.9,295.2c4.6-2.1,9.2,2.6,10.9,6.5c1.7,3.9,2.2,10.4-2.4,12.5c-4.6,2.1-9.2-2.6-10.9-6.5C897.8,303.9,897.4,297.3,901.9,295.2
		L901.9,295.2z M914.8,331.2c4.5-0.9,7.6,4.1,8.4,7.9c0.8,3.8-0.1,9.6-4.6,10.5c-4.5,0.9-7.6-4.1-8.4-7.9
		C909.4,338,910.3,332.2,914.8,331.2L914.8,331.2z M920.9,368.6c3.7-0.8,6.2,3.2,6.8,6.3c0.6,3.1-0.2,7.7-3.8,8.5
		c-3.6,0.8-6.2-3.2-6.8-6.3C916.4,374,917.2,369.4,920.9,368.6z"/>
	<path class="st3" d="M698.6,970.4c-2.5-4.2,0.5-10.7,6.8-14.5c6.3-3.8,13.4-3.5,15.9,0.7c2.5,4.2-0.5,10.7-6.8,14.5
		C708.3,974.9,701.1,974.6,698.6,970.4L698.6,970.4z M845.4,721.2c-11.1-0.3-19.7-14.1-19.3-30.9c0.4-16.8,9.7-30.1,20.8-29.9
		c11.1,0.3,19.7,14.1,19.3,30.9C865.8,708.1,856.5,721.5,845.4,721.2L845.4,721.2z M887.7,708.1c-8.6-0.2-15.3-10.9-15-23.9
		c0.3-13,7.5-23.4,16.1-23.2c8.6,0.2,15.3,10.9,15,23.9C903.5,698,896.3,708.4,887.7,708.1L887.7,708.1z M875.3,815.6
		c-7.3-2.2-10.6-12.9-7.3-24c3.3-11.1,11.8-18.3,19.1-16.1c7.3,2.2,10.6,12.9,7.3,24C891.2,810.6,882.6,817.8,875.3,815.6
		L875.3,815.6z M836.1,816.9c9.4,2.8,20.5-6.5,24.7-20.7c4.2-14.3,0-28.1-9.4-30.9c-9.4-2.8-20.5,6.5-24.7,20.7
		C822.4,800.2,826.7,814.1,836.1,816.9L836.1,816.9z M826.2,896.6c-4.9-4-4-13.3,2-20.7c6-7.4,14.8-10.2,19.7-6.2
		c4.9,4,4,13.3-2,20.7C839.9,897.8,831.1,900.6,826.2,896.6L826.2,896.6z M795.7,885.1c6.3,5.2,17.7,1.6,25.4-8
		c7.7-9.6,8.8-21.5,2.5-26.7c-6.3-5.2-17.7-1.6-25.4,8C790.5,868,789.4,879.9,795.7,885.1L795.7,885.1z M764,942.6
		c-4-4-2.4-12.1,3.6-18.1c6-6,14-7.7,18-3.7c4,4,2.4,12.1-3.6,18.1C776,945,768,946.6,764,942.6L764,942.6z M738.1,929.7
		c5.1,5.1,15.5,3,23.2-4.7c7.7-7.8,9.8-18.2,4.6-23.3c-5.1-5.1-15.5-3-23.2,4.7C735.1,914.1,733,924.5,738.1,929.7z"/>
	<path class="st3" d="M340.8,139.9C444,80.6,572,91,659.9,171.6c20.8,19.1-5.2,38.3-22,22.9c-77.5-71.1-189.9-79.8-280.8-27.6
		C337.1,178.3,316.1,154,340.8,139.9z"/>
	<path class="st3" d="M301,171.2c10.6-0.2,19.3,8.2,19.6,18.9c0.2,10.7-8.1,19.5-18.7,19.7c-10.6,0.2-19.3-8.2-19.6-18.9
		C282,180.2,290.4,171.4,301,171.2z"/>
</g>
</svg>
